<svg xmlns="http://www.w3.org/2000/svg" viewBox="0 0 500 500"><path fill="#FFF" d="M-5 0h509v500H-5z"/><g fill="#333"><path d="M428.7 363.7V377h52.9c0 2.7.3 5.1-.1 7.4-.7 4.5 1.3 6 5.5 5.5.7-.1 1.4 0 2.1 0 5.8-.1 5.8-.1 5.8 5.6 0 5.3-.3 10.6 0 15.9.2 3.7-1.1 4.5-4.5 4.3-5.8-.3-11.7 0-17.5-.1-3.4-.1-4.9 1.4-4.7 4.8.1 2.6 0 5.3 0 8.3h-11.4V404c3.1 0 6.1-.1 9.1 0 2.3.1 3.3-.9 3.2-3.2-.1-2.5-.2-5 0-7.5.2-3.1-1.2-4.3-4.2-4.2-6.4.2-12.8.3-19.2.3-3.1 0-4.2 1.5-4.2 4.4 0 10.9 0 21.7-.1 32.6 0 3.2 1.4 4.6 4.6 4.4 2.8-.1 5.5 0 8.5 0v11.7h-19.7c-9.6 0-19.2.1-28.8-.1-3.2-.1-4.2 1.2-4.1 4.2.1 2.9 0 5.8 0 9.3-3.4 0-6.6.1-9.7 0-2.4-.1-3.6.6-3.6 3.3.1 7 0 13.9-.1 20.9 0 2.7 1.2 3.6 3.8 3.6 6.5-.1 13.1 0 19.6-.1 2.5 0 3.3.6 3.2 3.4-.5 8.9-.4 9-9.5 9-8.2 0-16.5-.2-24.7.1-4.1.2-5.1-1.3-4.8-5 .3-2.6.1-5.2.1-8.2h-13.1v-12.7c3.1 0 6.2-.1 9.4 0 2.6.1 3.7-.8 3.8-3.6.3-10.5.4-10.5-10-10.6h-3.5v-6.3-6.3c3.7 0 7-.1 10.3 0 2.2.1 3.4-.6 3.4-3-.1-15.9-.1-31.8-.1-47.7 0-2.3-1-3.2-3.2-3.2-3.3.1-6.6 0-10.3 0 0-3.6-.1-6.8 0-10 .1-2.3-1-3.3-3.3-3.3-7.1.1-14.2.1-21.3.1-2.8 0-3.1 1.8-3 3.9v22.1h-52.6c0-3.4-.1-6.7.1-9.9.1-.8 1.3-2.2 2.1-2.3 3.8-.5 9.1.8 11.1-1.3 2-2 .8-7.3 1.1-11.5 7.3 0 14.5-.2 21.7.1 3.6.1 5-1 4.8-4.7-.2-6.1-.2-12.3 0-18.4.2-3.7-1.2-5-4.9-4.7-2.9.3-5.8 0-9.4 0 0-3.4-.1-6.6 0-9.7.1-2.6-.8-3.9-3.6-3.7-2.8.2-5.6 0-8.7 0v-25.9c3 0 6-.2 9 .1.9.1 2.1 1.6 2.2 2.5.4 2.5.1 5 .2 7.5.1 2.6 1.3 4.1 4.2 4 6.6-.1 13.1-.1 19.6 0 2.6 0 3.8-.9 3.7-3.7-.2-3.3 0-6.6 0-10.4 3.7 0 7-.2 10.3 0 3 .2 3.9-1.3 3.8-4s0-5.5 0-8.4h11.3v24.9c-2.7 0-5.5.2-8.2 0-3.5-.3-5.2.9-4.8 4.7.3 2.7 0 5.5 0 8.7-3.4 0-6.4.1-9.4 0-2.9-.1-4 1.3-4 4 0 6.5.1 13.1-.1 19.6-.1 2.9 1.2 4 4 4 12.9-.1 10.9 1.1 10.9-10.4 0-.8.1-1.6.2-2.6.7 0 1.2-.1 1.7-.1 3.1.2 7.2-.7 9.1.9 1.6 1.3.8 5.7.8 8.7 0 2.5 1.1 3.5 3.5 3.5h9.9v8.7c0 1.1-.1 3.2.1 3.2 3.8.7 7.6 1.2 11.5 1.4.8 0 2.3-1.9 2.4-3 .2-7 .1-13.9.2-20.9 0-2.5-.9-3.9-3.8-3.7-2.9.2-5.8.1-9.1.1v-12.5h7.9c1 0 2.2.3 2.9-.1 4.3-3 1.3-7.4 1.8-11.1.1-.8-2.1-2.6-3.5-2.8-3-.4-6-.1-9.3-.1v-24.8h11.8v9.2c0 2.2 1.1 3 3.4 3.1 11 .4 11 .5 11.3-10.5 0-.5.1-1.1.2-2.1h4.5c14.6 0 29.3-.1 43.9.1 3.7 0 4.8-1.4 4.9-4.9.1-8.9.2-9 9.1-9.2 2.8-.1 3.6-1.1 3.5-3.7-.2-2.8 0-5.5 0-8.6h12.5c0 7.4.1 14.8-.1 22.1-.1 3.2.8 4.7 4.2 4.4 2.9-.3 5.8-.1 9-.1.1 1.7.2 3.1.2 4.4 0 23.3-.1 46.5 0 69.8 0 3.2-.7 4.7-4.2 4.4-2.3-.3-4.7 0-7.7 0v-9.9c0-17.4-.1-34.8 0-52.2 0-3.2-1.2-4.7-4.3-4.7h-33c-3 0-4.2 1.5-4.2 4.4v8.7h-11.8c0-3-.1-6.1 0-9.2.1-2.6-.9-3.9-3.6-3.9-11.4.2-11.5-1.9-11.3 10.7 0 4.3.2 8.6.1 13 0 2.7 1 4.2 3.9 4 2.9-.1 5.8 0 8.9 0V350H407c-5.7 0-5.8 0-5.7 5.6.1 9.4-1.5 8.6 8.8 8.6 6.7-.5 12.5-.5 18.6-.5zm1.2 46.3v-14.6c0-6-.5-6.4-6.7-6.4-10 0-20 .1-30 0-3.2 0-4.5 1.2-4.5 4.4.1 11.1.1 22.3 0 33.4 0 2.8 1 4 3.9 4 11.1-.1 22.3-.1 33.4 0 2.8 0 4-1 3.9-3.9-.2-5.8 0-11.4 0-16.9zM197.5 295.9c-1-1.1-1.9-2.1-2.8-3.2-1.4-1.7-2.7-3.4-3.9-5.2v.1c-.3 2.7-.1 5.5-.1 8.4 2.4 0 4.7-.2 6.8-.1zM243.5 319v3.7c3.4 0 6.1.2 8.9 0 3.3-.2 4.6.9 4.3 4.3-.2 3 0 5.9 0 9.1 3.6 0 6.5-.1 9.4 0 2.4.1 3.2-.8 3.1-3.1-.1-4.3 0-8.6 0-13v-3.3c-7.5 1.7-15.4 2.4-23.7 2.4-.7 0-1.4-.1-2-.1zM154.5 269.8c6.3-.3 12.5 0 18.8-.1 3 0 4.3 1.1 4.1 4.2-.2 2.7 0 5.5 0 8.8 3.3 0 6.2-.1 9.1 0 .5 0 1 .1 1.4.2-4.6-7.9-7.8-16.5-9.2-25.5h-28c0 3.1.2 5.7 0 8.3-.4 3.1.6 4.3 3.8 4.1z"/><path d="M278.6 350.5c-6.1.3-12.2.2-18.4.4-3 .1-4.7-.9-4.5-4.3.2-3.1.1-6.3.1-9.7-3.8 0-7-.1-10.2 0-2.4.1-3.3-.9-3.2-3.2.1-3 0-6.1 0-9.4-3.4 0-6.5.2-9.5-.1-1.1-.1-2.8-1.4-3-2.3-.3-1.8-.4-3.6-.5-5.5-9.1-2.9-17.8-8-25.1-14 .7 6.4-1.5 7.7-9.6 7.8h-2.1c-2.6.3-3.9-.8-3.7-3.5.1-2.9 0-5.8 0-8.8h-11.4v24.8h16.6c11.1 0 9.6-1.2 9.9 9.8.1 3.6-1.3 4.5-4.7 4.5-12.8-.1-25.6-.1-38.5-.1-11.6 0-11.6 0-10.2 11.7 0 .1.2.2.7.8 2.7 0 5.9.1 9 0 2.6-.1 3.4 1 3.4 3.5-.1 6.8-.2 13.7 0 20.5.1 3-1 3.9-3.9 3.8-10.4-.1-20.9-.1-31.3-.1-1.5 0-2.9.1-4.6.2v12.1h4c9.9-.1 19.8-.2 29.6-.2 6 0 6.1.2 6.1 6v7c3.7 0 6.6-.1 9.5 0 2.6.1 4.1 1.2 3.9 4.2-.2 3 0 6 0 9.1h11.4v-25.3h-8.9c-2.4.1-3.5-.9-3.5-3.5.1-4.6 0-9.2.1-13.8.2-12-2.1-10.3 10.7-10.2 2.6 0 3.5 1.1 3.5 3.5v9.9h4.5c8-.1 8-.1 8-7.9 0-5.5 0-5.5 6-5.5 6.7 0 6.7 0 6.7-6.5v-1.3c0-5.4 0-5.4 5.5-5.4 9 0 9.1 0 8.8 9-.1 3.6 1.1 4.6 4.5 4.4 6.1-.3 12.3-.2 18.4-.3 2.7 0 3.7 1.2 3.6 3.8-.1 3.1 0 6.3 0 9.5h12.5c0-3 .2-5.7 0-8.4-.3-3.6 1-4.9 4.7-4.8 8.6.2 8.5 0 8.4-8.6.3-2.9-.5-3.7-3.3-3.6zM84.6 177.2v-12.5c3.1 0 6-.1 8.9 0 3.2.2 4.7-.8 4.4-4.2-.3-2.7 0-5.5 0-9 3.2 0 6.1-.1 9 0 2.8.1 3.9-1 4-3.9.4-10.9.4-10.9 12.2-9.2v9c0 2.6.9 4.2 4 4 2.8-.2 6.4-.9 8.1.5 1.4 1.2.5 5.1.7 7.7.1 1.5.4 3 .7 5h13v12.6c-3.3 0-6.6.1-9.9 0-2.5-.1-3.4.9-3.6 3.4-.8 10.8-.8 10.8 9.9 10.9h3.7V203.9h-13.4c-.2 2.2-.5 3.9-.4 5.7.1 6 .2 12 .4 17.9.1 2.2-.7 3.2-3.1 3.3-9.8.3-10 .1-9.2-9.7.4-4.6.6-9.2.4-13.7-.1-1.1-2.1-3.1-3.2-3.1-16-.2-32-.2-48.1-.1-.7 0-1.9.2-2 .3-.3 4-.8 7.9-.6 11.9 0 .8 3 1.9 4.6 2 7.1.2 14.2.1 21.8.1 0 3.3.3 6.5-.2 9.6-.1 1.1-1.9 2.5-3.1 2.7-2.4.4-5 .2-7.5.1s-3.6.8-3.4 3.4c.2 2.9 0 5.8 0 9.1H70.1c0 3.5-.1 6.6 0 9.8.1 2.7-.8 3.9-3.6 3.7-2.8-.1-5.5 0-9 0v-20.5c0-5.4 0-5.4-5.5-5.5-5.7-.1-11.4-.3-17.1-.5-5.1-.1-5.8.6-5.8 5.6v7.5c-3.2 0-6.2.1-9.2 0-2.5-.1-3.6 1-3.4 3.5.1 1.4 0 2.8 0 4.2 0 6.5 0 6.5 6.5 6.5 7.7 0 7.7 0 7.7-7.7v-5.4c3.6 0 6.9-.2 10.2.1.8.1 2.1 1.6 2.2 2.5.3 2.2.2 4.5 0 6.7-.3 3.2 1.2 4.2 4.2 4 2.6-.2 5.3 0 8.4 0v9.8c0 2.6.9 4 3.7 3.7h.8c10.9.1 11.1.4 9.2 12.1-7.7 0-15.4 0-23.2-.1-.8 0-1.6-1.1-2.2-1.9-.3-.5 0-1.4-.1-2.1-.4-2.9 0-7.9-1.3-8.4-3.4-1.3-7.6-.9-11.5-.6-.8.1-2 2.3-2.2 3.7-.3 3-.1 6-.1 9.3-3.1-.2-5.8-.4-8.6-.5-2.8-.2-4.2 1-4 3.9.1 3.1 0 6.1 0 9.4H4c-.1-1.5-.2-2.7-.2-3.9 0-18.9.1-37.9-.1-56.9 0-3.2.7-4.2 4.1-4.2 9.3 0 9.3-.1 9.4-9.6v-3.3h9c3 0 4.7-1 4.4-4.5-.2-2.9 0-5.8 0-8.8 7.6 0 14.8-.1 22 .1 3.7.1 5.1-1.3 4.8-4.9-.2-2.6 0-5.3 0-8.6h7.1c6.4 0 6.4 0 6.4-6.5v-6.5h11.7c0 3.1.1 6.2 0 9.3-.1 2.7.8 3.8 3.6 3.7 11.3-.1 22.6-.1 33.9 0 2.7 0 3.6-1 3.7-3.7.4-10.7.5-10.7-10.3-10.6-9.4-.1-19-.1-28.9-.1zM243.6 172.9c3.9-.4 7.8-.6 11.9-.7v-.1c-.2-2.4.3-6.1-1-6.9-1.9-1.2-5.1-.3-7.7-.5-2.5-.2-3.6.7-3.3 3.3.2 1.6.1 3.2.1 4.9zM198.8 189.7c1.6 0 2.8.2 3.6.9.6-.6 1.2-1.1 1.9-1.6 5.8-4.8 11.8-8.3 18-10.8-9.6 0-19.2 0-28.8.1-3.6 0-4.7-1.5-4.5-4.7.1-2.9 0-5.7 0-8.6h-24.8v12.3c3.3 0 6.4.1 9.4 0 2.7-.1 3.8 1.1 3.7 3.8-.1 2.9 0 5.7 0 8.8 7.6-.2 14.5 0 21.5-.2zM308.1 198.6c1.4 1.7 2.8 3.5 4 5.4 3.2.1 6.3 0 9.6 0v-12.5h-20.5c2.5 2.2 4.8 4.6 6.9 7.1zM50.8 5.2c14.2 0 28.4.1 42.6-.1 2.8 0 3.7.8 3.6 3.6-.3 9.4-.6 18.9-.5 28.4 0 18.8.2 37.5.5 56.3.1 3.6-1 4.5-4.5 4.5-28-.1-56-.1-83.9 0-3.3 0-4.3-.9-4.3-4.3.1-28.1.1-56.3 0-84.4 0-2.6.3-4 3.6-4 14.2.2 28.5.1 42.9 0zm-.3 80c9.6 0 19.2-.2 28.8.1 4.2.1 5.2-1.6 5.2-5.4-.2-19.2-.2-38.4-.1-57.6 0-3.6-1.4-4.9-4.9-4.9-19.3.1-38.7.2-58 .1-3.4 0-4.7 1.2-4.7 4.6.1 19.5.1 39 0 58.5 0 3.6 1.3 4.6 4.6 4.6h29.1zM4.2 403.8h4.5c27.8 0 55.7.1 83.5-.1 3.7 0 4.6.8 4.6 4.6-.2 27.7-.1 55.4.1 83.1 0 3.3-1 4.3-4.3 4.3-28.3-.1-56.5-.1-84.8-.1-2.3 0-3.7-.3-3.7-3 .2-29.3.1-58.7.1-88.8zm79.4 79.5c.3-1.7.7-2.9.7-4.1v-59.3c0-2.9-1.2-4.4-4.2-4.4-19.8 0-39.6 0-59.3.1-2.7 0-4 1.2-4 4.1 0 20.1.1 40.1 0 60.2 0 2.8 1.2 3.7 3.8 3.6 4.5-.1 8.9-.1 13.4-.1 16.3-.1 32.8-.1 49.6-.1zM403.1 51.3c0-13.9.1-27.8-.1-41.8 0-3.4.7-4.4 4.4-4.4 28 .2 55.9.1 83.9.1 2.7 0 3.6.7 3.6 3.5-.1 28.4 0 56.8.1 85.2 0 2.9-.9 3.9-3.8 3.9-28-.1-55.9-.2-83.9-.1-3.8 0-4.3-1.3-4.3-4.6.2-14 .1-27.9.1-41.8zm46 33.9c8.2 0 16.4.1 24.7 0 9.3-.1 9.4 1.7 9.4-8.6 0-1.4.1-2.8.1-4.2 0-16.8 0-33.7.2-50.5 0-3.7-1.9-4.4-5-4.4-19.5.1-39 .1-58.5.1-3.5 0-5.1 1.4-4.8 5 .2 2.4.3 4.7.3 7.1l-.6 50c-.1 5.1.5 5.6 5.5 5.6 9.5-.1 19.1-.1 28.7-.1zM17.6 349.4c0-3.7-.1-6.8 0-9.8.1-2.5-.9-3.7-3.4-3.6h-.4c-10.4-.5-10.4-.5-9.3-11.7 2.9 0 6-.1 9 0 2.9.1 4.3-1 4.2-4.1-.2-7.4-.1-14.7-.1-22.4h11.8c0 11.1.1 22.2 0 33.3 0 5.4.1 5.7 5.5 5.7H56c0 3 .2 5.9-.1 8.7-.4 4.2 1.5 5.3 5.4 5.2 11.7-.2 23.3-.1 35.1-.1v12c-3.7 0-7.3-.6-10.6.1-6.4 1.5-1.8 6.9-3 10.3-.8 2.2.1 4 3.2 3.9 3.3-.2 6.7 0 10.8 0 0 3.5.3 6.8-.2 10-.2 1-2.6 2.3-4 2.3-8.9.1-17.8-.3-26.7-.3-19.2 0-38.4.1-57.6.4-3.5.1-4.5-1-4.2-4.2.2-2.5 0-5 0-8.1 3.2 0 6.1-.2 8.9.1 3.4.3 4.9-.8 4.6-4.4-.3-2.9-.1-5.8-.1-8.9h11.8c0 3.1.1 6 0 8.9-.1 3 .7 4.5 4.2 4.4 11.1-.2 22.3-.2 33.4 0 2.6 0 3.8-.7 3.8-3.5.2-12.3 1.1-10.9-9.9-11-4.3 0-8.6-.1-13 .1-2.7.1-3.7-.6-3.7-3.5-.1-9.9-.2-9.9-10.4-9.9-5 .1-10.3.1-16.1.1zM350.4 97.4v-39c3.3 0 6.3-.1 9.4 0 2.3.1 3.3-.8 3.2-3.2-.2-13.3 1.7-10.9-10.1-11.1-.8 0-1.6-.1-2.6-.2V5c8 0 15.6-.1 23.2.1.7 0 1.8 1.8 1.8 2.8.2 6.7.2 13.4.1 20.1-.1 2.8.9 3.6 3.6 3.6 9.6.2 9.7.3 9.7 10 .1 17.4 0 34.8.1 52.2 0 2.9-1 3.9-3.9 3.8-9.7-.4-8.5 1.5-8.4-8.3 0-5.9.1-5.9-5.9-5.9-9.1 0-9.2 0-8.6 9.3.2 3.6-.5 5.4-4.5 4.7-2.2-.3-4.4 0-7.1 0zM190.7 124.3c0-3.8-.1-7.2 0-10.7.1-2.5-.9-3.6-3.4-3.4-3.2.1-6.3 0-9.7 0V98.4h8.8c3-.1 4.7-1.2 4.4-4.6-.2-2.7 0-5.5 0-8.5h12.4v9.8c0 2.4.9 3.6 3.5 3.5 12.3-.5 10.8.6 10.8-10.1v-3.1h12.6c0 3.2.1 6.5 0 9.8-.1 2.5.9 3.5 3.5 3.4 11.4-.3 10.2 1.6 10.4-10.1.1-3.8-1.1-5.4-5-5-2.6.3-5.2.1-8.4.1.2-3.2.2-6 .5-8.9.3-2.7-.8-3.8-3.5-3.7-3.3.1-6.6 0-10 0V58.8h25.2c0 3.2.1 6.5 0 9.8-.1 2.3.9 3.3 3.2 3.3 2.4-.1 4.8-.3 7.1.1 1.1.2 2.8 1.5 2.8 2.4.3 9.2.2 18.3.3 27.5v22.4c-6.4 0-12.1.2-17.9 0-8.2-.3-8.2-.4-7.3-8.7.5-4.2-.4-5.2-4.6-5.2-6.4 0-12.8.1-19.2 0-2.7-.1-3.9.8-3.7 3.6.2 2.5.4 5.1-.1 7.5-.2 1.1-1.7 2.7-2.8 2.9-3.3.2-6.4-.1-9.9-.1zM468 150.2h-11.4c0-3.2-.1-6.4 0-9.6.1-2.6-1-3.8-3.7-3.7-3.2.1-6.4 0-10.2 0V124h-26.3v-12.2h38.5c0 2.9.1 6 0 9.2s1.5 4.2 4.4 4c9.7-.5 9.7-.5 9.9-10.3 0-.8.1-1.6.2-3.3 8 0 15.9-.1 23.8.1.6 0 1.8 1.7 1.8 2.5.1 28.8.1 57.7-.1 86.5 0 1-1.7 2.8-2.8 3-2.7.4-5.5.1-8.9.1 0-3.2-.1-6.1 0-8.9.1-3.7-1.1-5.8-5.4-5.3-2.7.3-5.5.1-8.1.1-.3-.6-.5-.9-.5-1.1-.4-10.2-.4-10.3 9.8-10.5 3.1-.1 4.3-1.2 4.3-4.2 0-11.1 0-22.3-.1-33.4 0-2.5-1-3.6-3.8-3.7-11.1-.3-11-.4-11.3 10.3.2 1.2 0 2.2-.1 3.3zM4.6 138.1h24.7v7.8c0 5.3.3 5.5 5.4 5.5h21.1v11.7h-8.4c-2.7 0-3.9 1-4 4-.2 10.1-.4 10.1-10.3 10.1-4.2 0-8.4.2-12.5 0-3-.1-3.9 1.1-3.9 3.9.1 10.2 0 20.3 0 30.5v4.7H4.5c.1-26 .1-51.9.1-78.2zM483.3 269.8c0-3.2-.1-6.3 0-9.3.1-2.7-.8-4-3.7-4.3-10.6-1.1-11.2-.7-11.3 9.6v3.6h-11.6c0-2.6-.2-5.5 0-8.3.3-3.7-1.4-5-4.9-4.9-1.8.1-3.7-.5-5.4-.2-3.8.7-4.1-1.3-3.9-4.2.2-2.6 0-5.3 0-8.4h-12.4v-12.3h8.4c2.6 0 4.2-.8 4-3.9-.2-2.9 0-5.8 0-8.9h25.9c0 6.9.2 13.8-.1 20.7-.1 3.9 1 5.4 5.2 5.3 9.2-.3 9.2-.1 9.8-9.3.1-1.2.2-2.5.3-3.6.4-.2.6-.5.8-.5 10.9-.4 10.8-.4 10.7 10.4-.1 8.1-.1 16.1.1 24.2.1 3.2-.8 4.7-4.2 4.3-2.4-.2-4.8 0-7.7 0zM368.5 204.8c-6.4 0-6.4 0-6.4-6.6v-6.8c-3.3 0-6.1-.2-8.8 0-3.4.3-4.7-.8-4.6-4.4.2-9 .1-18.1.1-27.1 0-8.5 0-8.4-8.5-8.5-3.2 0-4.1 1.1-4 4.2.2 5.6 0 11.1 0 16.7 0 5.8 0 5.8-5.7 5.9H324v11.5c.7.1 1.1.1 1.5.2 11.4.2 11.3.2 10.8 11.6-.1 2.5-1 3.6-3.5 3.5-3-.1-6 0-8.9 0v28c.6 3.4 1 6.9 1.1 10.3 2.3 0 4.4-.1 6.5.1 2.8.2 4-.6 3.9-3.7-.2-5.8-.1-11.7 0-17.5 0-5.3.2-5.5 5.3-5.5H375.1V205l-6.6-.2z"/><path d="M149.4 256.6c-3.5 0-6.7.1-9.8 0-2.6-.1-3.6 1-3.5 3.4.1 2.2 0 4.5.1 6.7.2 2.6-.8 3.4-3.4 3.3-5.8-.3-11.7-.3-17.5-.3-1.8 0-3.6.3-5.6.5V283h-25v-12h8.4c1 0 2.7 0 2.8-.2.6-3.8 1.3-7.7 1.3-11.5 0-.9-2-2.5-3.3-2.6-3-.4-6-.1-9.3-.1v-12h65c-.2 3.7-.2 7.5-.2 12zM150.6 416.7h25.9c0 3.6.1 7 0 10.5-.1 2.5 1 3.5 3.5 3.5 2.9-.1 5.8 0 9.1 0 0 7.6.1 14.8-.1 21.9-.1 3.5 1.3 4.8 4.6 4.7 3-.1 6.1 0 9.6 0 0 3.3.2 6.4-.1 9.4-.1.9-1.5 2.2-2.5 2.3-2.5.3-5 .3-7.5.1-3.2-.3-4.2 1.2-4.1 4.2.1 2.9 0 5.8 0 9h-11.7c0-3.1-.2-6 0-8.9.2-3.4-1.2-4.5-4.4-4.3-2.8.2-5.6 0-8.7 0v-11.7h8.7c2.8 0 4.4-1.1 4.4-4.2 0-12.5.9-10.7-10.2-10.8-4.5 0-8.9-.1-13.4.1-2.2.1-3.3-.5-3.3-3 .3-7.5.2-14.9.2-22.8zM348.4 482.3h-12.2c0-3.4-.1-6.6 0-9.9.1-2.6-1-3.5-3.5-3.4-2.9.1-5.8 0-8.9 0v-11.7h8.6c2.5 0 4-.9 3.7-3.7v-1.2c-.3-11.9 2.2-9.9-10.5-10.1-2.7-.1-3.8 1.2-3.7 3.8v9.6h-12.3v-25.1c3.2 0 6.3-.1 9.4 0 3.5.2 4.8-1.4 4.6-4.7-.2-3 0-6.1 0-9 .8-.2 1.2-.4 1.6-.4 10-.5 10.1-.5 10.1 9.4 0 3.7 1.4 5 5 4.8 2.6-.2 5.3 0 8.2 0-.1 17.1-.1 34.2-.1 51.6zM389.7 269.8c0-3.5-.1-6.4 0-9.3.1-2.8-1.1-4.2-4-4h-.4c-8.9-.2-8.9-.2-8.9-9 0-4.3.1-8.6 0-12.9 0-2.1.2-3.3 3-3.1 10.3.4 10.3.3 10.3-9.9v-3.2h25.6c0 4.1.1 8.2 0 12.3-.1 4-.3 8-.5 12.5h-12.7c0 7.8-.1 15.2.1 22.5.1 3.1-.4 4.7-4.1 4.2-2.6-.5-5.2-.1-8.4-.1zM215.8 415.4h-11.9c0-8-.1-15.7.1-23.5 0-.8 1.8-1.9 2.8-2.1 1.9-.3 3.9-.3 5.8 0 4 .6 4.8-1.4 4.6-4.9-.3-7.9-.3-7.9 7.6-7.9h30.5c.2.9.4 1.4.4 1.9.4 9.9.4 10-9.3 10.4-3.1.1-4.1 1.1-4 4.2.2 7.2.1 14.4.1 22.1-3.6 0-6.9.2-10.1-.1-.8-.1-1.9-1.7-2.1-2.8-.3-1.9-.2-3.9 0-5.8.3-3.4-1.1-4.9-4.5-4.7-11.3.5-10-1.6-10 9.6v3.6zM149.5 58.5c.1.9.2 1.4.3 1.9.3 10.2.3 10.3-9.8 10.5-2.9.1-4 1.1-4 3.8.1 2.8 0 5.5 0 8.8-2.9 0-5.8.1-8.7 0-3.1-.2-4.3 1.3-4.3 4.2v5.4c0 .7.3 1.7-.1 2-1 1-2.6 2.6-3.3 2.3-2.9-1.3-8.6 3.3-8.9-2.4-.7-15.7-.3-31.4-.1-47.1 0-.9 1.7-1.8 2.6-2.7.1-.1.3 0 .4 0 9.2-.4 9.4-.4 9.3 8.7-.1 3.8 1.3 4.8 4.8 4.7 7.2-.3 14.4-.1 21.8-.1zM441.4 191.4c.6 12.5.6 12.5-10.9 12.5-12.4 0-24.8-.1-37.2.1-3.2 0-4.2-1-3.9-4.1.3-2.6.1-5.3.1-8.5 3.7 0 7-.1 10.3 0 2.5.1 3.4-.9 3.4-3.5-.1-7.5 0-15 0-22.9h11.7v8.2c0 3.4 1.3 5.2 5 4.9 2.6-.2 5.2 0 8.3 0 0 3 .1 5.8 0 8.5-.2 3.5 1 5.2 4.8 4.9 2.7-.3 5.4-.1 8.4-.1zM96.6 309.4c-3.2 0-6.2.1-9.3 0-3.2-.1-5 1-4.6 4.6.3 2.7.1 5.5.1 8.5H44.5V298H56c0 2.8.1 5.6 0 8.3-.2 2.8.7 4.1 3.7 4 13.5-.3 11.2 2 11.4-11 .1-5 0-10 0-15.4h11.7c0 3.5.1 7 0 10.6-.1 2.3.8 3.3 3.2 3.2 3.5-.1 6.9 0 10.7 0-.1 3.9-.1 7.5-.1 11.7zM123 376H97.8v-12.3c3.1 0 6.1-.1 9.2 0 2.6.1 3.8-.9 3.7-3.7-.1-3-.7-6.9.9-8.7 1.2-1.5 5.4-.5 8.3-.4 3.2.1 4.5-1.2 4.2-4.5-.3-3-.1-6-.1-9.5 3.8 0 7-.2 10.1.1.8.1 2 1.7 2.1 2.6.3 3.4.1 6.9.1 10.7h13.3v12.2c-7.1 0-14-.1-20.9 0-5.5.1-5.5.1-5.6 5.7-.1 2.6-.1 5.1-.1 7.8zM336.2 111.5c12.4 0 24.2.1 36-.1 2.3 0 3.3.4 3.2 2.9-.1 3 0 6 0 9.5h-9.1c-2.9 0-4.4 1.1-4.5 4.5-.3 8.6-.5 8.6-9.2 8.7h-28.7v-11.7c2.4 0 4.7-.2 7 0 3.9.3 5.8-.9 5.3-5.2-.2-2.7 0-5.4 0-8.6zM456.7 469v-25.8c3 0 5.9-.1 8.8 0 2.7.1 3.8-.8 3.7-3.6-.2-2.9 0-5.8 0-8.8h12.5c0 2.9.2 5.8 0 8.6-.2 3 1.1 3.8 3.9 3.8 9.4.1 9.4.2 9.5 9.8 0 4.2-.1 8.3 0 12.5.1 2.4-.6 3.7-3.3 3.5-2.6-.1-5.3 0-8.6 0v-8.8c.1-3.2-.9-4.7-4.6-4.7-10 .1-10.1 0-10.3 10-.1 2.5-.7 3.6-3.3 3.4-2.6-.1-5.2.1-8.3.1zM162.4 56.7h-11.6V19c2.3 0 4.6-.1 6.9 0 5.2.2 6.2-.7 6.2-5.7 0-7.7 0-7.8 8-7.9 5.5-.1 11.1 0 16.8 0v12.2H180c-2.6-.1-3.8.9-3.7 3.7.1 3 .7 7.1-.9 8.7-1.7 1.6-5.8.9-8.8.7-3.4-.2-4.4 1.4-4.4 4.4.3 7 .2 14.1.2 21.6zM149.5 5.7v12c-3.3 0-6.5.1-9.6 0-2.5-.1-3.9.8-3.8 3.6 0 3 .7 7.3-.9 8.6-2 1.6-6 .8-9.2.8-4.2.1-8.3-.1-12.5 0-2.1.1-3-.6-3-2.8.1-6.5-.1-13.1.1-19.6 0-1.1 1.6-3.1 2.4-3.1 11.8-.2 23.6-.1 35.4 0 .3 0 .6.2 1.1.5zM149.7 457.1c0 12.4.1 24.1-.1 35.7 0 1-1.8 2.8-2.8 2.8-6.5.2-13.1.1-19.6.1-2.3 0-3.3-.9-3.3-3.2 0-6.5.1-13.1-.1-19.6 0-2.5 1.1-3 3.3-3.1 3.2 0 7.4.7 9.1-1 1.7-1.7.9-5.9.9-9.1 0-2.1.6-2.9 2.9-2.7 3.1.3 6.1.1 9.7.1zM164 191.5h12.1c.1.8.4 1.6.4 2.3v45.9c0 1.9.1 3.6-2.7 3.5-7.5-.1-15 0-23.1 0 0-3.3-.2-6.5.1-9.6.1-.9 1.9-2.2 3-2.3 10.2-.6 10.2-.6 10.2-10.8v-29zM403.3 283.1v-12.3c3.2 0 6.3-.1 9.4 0 2.4.1 3.3-.9 3.1-3.2-.1-1.4-.1-2.8-.1-4.2 0-6.7 0-6.6 6.5-6.5 6.2.1 12.5 0 19.7 0 0 8.3.1 16-.1 23.7 0 .8-1.5 2.2-2.3 2.2-11.9.4-23.8.3-36.2.3zM217.4 482.2v-24.9h12.1c0 2.5.1 5.1 0 7.7-.2 3.6 1 5.3 5 5.1 6.9-.3 13.9-.1 21.3-.1 0 3.6.2 6.9-.1 10.1-.1.9-1.5 2.1-2.5 2.3-3.4.5-7.9-.7-9.9 1.1-1.7 1.5-.7 6.2-.8 9.5 0 2.2-1 2.9-3.1 2.8s-4.3.3-6.2-.2c-1.2-.3-2.1-1.8-3.1-2.8-.1-.1 0-.3 0-.4-.3-3.2.5-7.6-1.3-9.3-1.7-1.6-6.1-.5-9.2-.6-.6-.1-1.3-.2-2.2-.3zM270.3 137.1h-13.4v-12.3c7.2 0 14.2-.2 21.2.1 3.6.1 5.1-.9 4.7-4.7-.3-2.8-.1-5.7-.1-8.6H295V137c-3.2 0-6.4.1-9.5 0-2.9-.1-4 1.1-3.8 4 .2 3 0 6 0 9.3h-11.5c.1-4.3.1-8.4.1-13.2zM297.2 31.9h11.5v20.4c0 5.9.2 6.2 6 6.2H335v12.3h-37.8V31.9zM230.5 443.1c3.5 0 6.7-.1 9.8 0 2.4.1 3.2-1 3.2-3.2-.1-2.9 0-5.8 0-9.1h38.6c.1.3.1.4.2.5.1 10.8.1 10.8-10.7 10.8-4.2 0-8.4.1-12.5 0-2.3 0-3.3.9-3.3 3.2.1 3.2 0 6.4 0 9.9h-25.3v-12.1zM297.1 110V85.4h11.5V94c0 3.2 1.4 4.8 4.8 4.7 10.7-.3 10.3 1.6 10.2-10v-3.2h11.5V110h-38zM388.3 270.9c.2 3.5.5 6.5.3 9.3-.1 1-1.7 2.7-2.6 2.7-11.8.2-23.6.1-35.7.1v-25.7c3.3 0 6.2-.2 9 .1.9.1 1.7 1.5 2.6 2.4.1.1 0 .5 0 .8.5 10.2.5 10.2 10.9 10.2 5.1.1 10.1.1 15.5.1zM375.5 151.6c0 3.6.1 6.9 0 10.2-.1 2.2.8 3 3 2.9 2.5-.1 5.1-.3 7.5.1 1.1.2 2 1.8 2.9 2.8.1.2 0 .5 0 .8 0 8.8 0 8.8-8.8 8.8-4.7 0-9.5.1-14.2-.1-1 0-2.7-1.3-2.7-2-.2-7.7-.1-15.5-.1-23.5h12.4zM97.8 310.4h25v25.3h-12.3c0-2.9-.1-5.8 0-8.7.2-3.2-.8-4.7-4.2-4.4-2.7.2-5.5 0-8.5 0v-12.2zM430.1 362.8v-12h30.1c8.8 0 9.3.6 8.1 9.6-.1.9-1.6 2.3-2.5 2.3-11.8.1-23.6.1-35.7.1zM321.8 165v12h-24.7v-25.3h11.4v7.5c.1 5.3.3 5.5 5.3 5.5h6.7c.4 0 .6.1 1.3.3zM441.6 457c0 3.4.1 5.9 0 8.4-.1 3.1 1.2 4.6 4.5 4.5 2.9-.1 5.8 0 8.8 0v12.2H430c0-7.7-.1-15.3.1-23 0-.7 1.3-2 2.1-2 2.8-.2 5.9-.1 9.4-.1zM441.7 138.2c0 7.9.1 15.6-.1 23.2 0 .6-2 1.7-3.1 1.8-7.2.2-14.4.1-22 .1v-11.8c3.5 0 6.8-.1 10.1 0 2.5.1 3.5-.9 3.4-3.5-.1-3.2 0-6.3 0-9.8h11.7zM333.5 257c-.2-.1-.5 0-.8 0h-8.6c-.7 4.4-1.8 8.7-3.2 12.8 3.8 0 7.5.1 11.3-.1 1.1 0 3.1-1.8 3-2.5-.6-3.3 2.2-7.4-1.7-10.2zM308.4 416.4v12.3h-25.5c0-3.3-.2-6.7.1-10.1.1-.8 1.8-2.1 2.8-2.1 7.3-.2 14.7-.1 22.6-.1zM136.2 295.9h-25.5v-12.5h6.9c5.1.1 10.3.3 15.4.1 2.5-.1 3.2.8 3.2 3.1-.1 3 0 5.9 0 9.3zM482.1 495.7c-3.3 0-6.7.2-10-.1-1.1-.1-2.8-1.7-2.9-2.8-1-9.4-.9-9.4 8.7-9.5 4.4 0 8.9.1 13.3 0 2.6-.1 3.7.7 3.8 3.5.3 8.7.4 8.7-8.3 8.9h-4.6zM322.4 30.6c-3.3 0-6.7-.1-10 0-2.2.1-2.8-.8-2.9-2.9-.3-9.2-.4-9.1 8.7-8.8 4.4.1 8.8-.2 13.2-.5 2.8-.2 4 .5 4 3.6 0 8.6.1 8.6-8.5 8.7-1.5 0-3 0-4.5-.1 0 .1 0 .1 0 0zM376.5 150.4c0-8-.1-15.3.1-22.7 0-1 1.9-2.6 2.9-2.7 10.4-.6 9.2-2.2 9.2 8.8 0 4.6.1 9.1-.2 13.7-.1 1-1.5 2.6-2.5 2.7-2.9.5-6 .2-9.5.2zM137.4 110V85.4h12V110h-12zM295 495.7c-7.5 0-14.6-.1-21.6 0-2.3 0-3.1-.8-3.2-3.1-.4-9.3-.5-9.3 8.9-9.3H295v12.4zM231 150.5V138h23c3.7 2.5 1.2 6.3 1.6 9.4.1.9-1.7 2.9-2.7 2.9-7.1.3-14.3.2-21.9.2zM270.4 32c12.1-1.1 12.1-1.1 12 10.3-.1 4.7-.4 9.4-.7 14.4h-11.3V32zM149.7 136.9c-8 0-15.5.1-22.9-.1-.9 0-2.3-1.4-2.4-2.3-.4-2.3-.5-4.7-.1-7 .2-1 1.8-2.3 2.8-2.4 6.4-.3 12.7-.2 19.1-.5 2.7-.1 3.8.8 3.6 3.5-.2 2.8-.1 5.5-.1 8.8zM203.9 430.8h25.6v11.5h-14.8c-2.4 0-4.7-.2-7.1 0-3 .3-3.9-1-3.8-3.8.2-2.5.1-4.9.1-7.7zM335.3 309.2h-11.5v-25.6c3.1 0 6.2-.2 9.1.1.9.1 2.2 1.7 2.2 2.6.3 7.5.2 15 .2 22.9zM414.9 125.1v25h-11.7c0-7.8-.1-15.6.1-23.4 0-.6 1.7-1.5 2.6-1.5 2.7-.2 5.5-.1 9-.1zM281.9 110.1h-11.5V85.4h11.5v24.7zM229.9 17.6h-12.4V5.1c3.4 0 6.8-.1 10.2.1.8.1 2 1.5 2.1 2.3.2 3.1.1 6.3.1 10.1zM122.8 402.2c-3.5.2-6.9.3-10.3.5-.3 0-.8 0-.8-.1-.4-3.4-1-6.8-1.1-10.3 0-.8 1.5-2.2 2.4-2.3 3.1-.3 6.3-.1 9.8-.1v12.3zM176.5 296.1H164c0-3.8-1-7.7.2-10.8 1.6-4 6.1-.7 9.3-1.6.7-.2 2.7 1.4 2.8 2.3.4 3.4.2 6.7.2 10.1zM176.2 150.3h-12.1v-12h12.1v12zM295.2 336.9v12.3h-12.3c0-3.4-.2-6.8.1-10.1.1-.8 1.5-2 2.3-2.1 3.3-.2 6.6-.1 9.9-.1zM164.1 70.6V58.7h12.1v11.9h-12.1zM69.9 177h-12v-12h12v12zM84.5 150.2V138c3.4 0 6.8-.1 10.2.1.8.1 2 1.5 2.1 2.3.3 3.2.1 6.3.1 9.8H84.5zM97.5 349.1v-12h11.9v12H97.5zM136.1 416.9v11.7H124c-.1-.7-.2-1.4-.2-2 0-11.3.5-11.7 12.3-9.7zM164 85.4h12.3v12.2c-3.5 0-7 .1-10.5-.1-.6 0-1.6-1.4-1.7-2.2-.3-3.2-.1-6.4-.1-9.9zM122.9 443.1v12.3h-12.3c0-3.5-.2-6.8.1-10.1.1-.8 1.7-2 2.7-2.1 2.9-.3 6-.1 9.5-.1zM203.1 70.8H191V58.5c3.3 0 6.7-.1 10.1.1.7 0 1.9 1.2 2 1.9.1 3.3 0 6.6 0 10.3zM321.9 470.2v12.2c-3.5 0-6.9.1-10.3-.1-.8-.1-2-1.4-2-2.3-.2-3.1-.1-6.3-.1-9.8h12.4zM164.2 495.7v-12.2h12.3c0 3.2.2 6.5-.1 9.8-.1.9-1.6 2.2-2.5 2.3-3.1.3-6.2.1-9.7.1zM321.7 150.4h-3.6c-9.2 0-10-.9-8.4-10.1.2-.9 1.6-2.1 2.6-2.2 3-.3 6-.1 9.4-.1v12.4zM57.9 137v-12.3c3.4 0 6.9-.1 10.3.1.7 0 1.9 1.3 2 2.1.3 2.6.3 5.3 0 7.9-.1.8-1.7 2-2.7 2.1-3.1.3-6.1.1-9.6.1zM16.6 350.6v12.1c-3.5 0-6.9.1-10.3-.1-.7 0-1.9-1-1.9-1.6-.2-3-.2-6.1 0-9.1 0-.5 1.5-1.3 2.4-1.3 3.2-.1 6.3 0 9.8 0zM164.3 111.5h12v12.1h-12v-12.1zM243.7 44.2V31.7c3.4 0 6.7-.2 9.9.1.8.1 2.1 2.2 1.9 2.6-1.9 3.1 3.1 8-2.2 9.6-2.9 1-6.2.2-9.6.2zM217.7 31.8H229c.3 3.6.8 7 .8 10.3 0 .7-1.7 2-2.6 2.1-3 .3-6 .1-9.4.1-.1-4.2-.1-8.1-.1-12.5zM190.9 30.5V18.7c3.4 0 6.6-.1 9.9.1.8.1 1.5 1.3 2.2 2 .1.2 0 .5 0 .8.8 9 .8 9-8.2 8.9h-3.9zM350.1 402.3v-4.1c.1-9.1.1-9.2 9.1-8.3 1 .1 2.6 1.5 2.7 2.5.4 3.1.1 6.3.1 10h-6c-1.7-.1-3.4-.1-5.9-.1zM256.4 404.1H269c.1.9.2 1.5.2 2.2.3 10-.6 10.8-10.4 9.4-.9-.1-2.3-1.3-2.3-2.1-.3-3.2-.1-6.3-.1-9.5zM190.9 163.3v-11.7h12.3c0 3.2.2 6.4-.1 9.5-.1.8-1.6 2-2.6 2.1-3 .3-6.1.1-9.6.1zM279.3 177.1h2.1c2.2-12.3 1.6-12.9-10.2-12.3-.2 0-.5.2-.7.4v8.8c2.9.8 5.9 1.8 8.8 3.1zM269.1 457.2c0 3.2-.1 5.9 0 8.5.2 2.6-.9 3.4-3.4 3.3-2.9-.1-5.8 0-9 0v-11.8h12.4zM137.4 415.4v-11.3h12v11.3h-12zM469.4 204.9h12v11.3h-12v-11.3zM468 203.8h-11v-12.2h11v12.2zM375.3 324.5v11.2h-12v-11.2h12zM350.4 417c.6-.4.7-.5.8-.5 12.4.2 11.2-2.9 10.5 12.1h-11.4c.1-3.9.1-7.8.1-11.6zM282 17.5h-11.8c0-3.6-.1-7.1.1-10.6 0-.7 1.1-1.7 1.7-1.8 2.8-.2 5.5-.2 8.3 0 .6.1 1.6 1.4 1.7 2.3.1 3.2 0 6.4 0 10.1zM454.6 189.5c-.5.1-.9.3-1.3.3h-10.9c0-3.3-.3-6.3.1-9.2.1-.9 1.8-2.2 3-2.4 2.9-.3 5.8-.1 9-.1.1 3.7.1 7.4.1 11.4zM443 324.5h11.7v11.4c-1 .1-1.9.2-2.8.2-10.8 0-10.9-.3-8.9-11.6zM215.6 482.7V496c-3.9-.4-8.5.3-10.9-1.6-1.7-1.4-1.9-8-.2-9.5 2.2-2 6.9-1.5 11.1-2.2zM215.4 150.2h-11.3c-.1-.9-.1-1.5-.1-2.2.3-11.8-2.5-10.3 11.4-9.8v12zM323.9 483.5h11.5c0 3.5.1 6.9-.1 10.3-.1.7-1.3 1.8-2.1 1.9-3 .2-6 .1-9.3.1v-12.3zM283.3 83.3c-.2-.3-.4-.4-.4-.5-.1-13-2.6-11 12-10.7v11.2h-11.6zM361.6 243.1h-11v-11.6c.6-.1 1-.2 1.4-.3 11.5-.5 11.7-.3 9.6 11.9zM84.7 335.8v-11.2h11.9v11.2H84.7zM84.5 111.5c3.5 0 6.4.1 9.3 0 2.3-.1 3.6.3 2.8 3-.3 1.1-.3 2.2-.4 3.3-.2 5.9-.2 5.8-6.2 6-1.8 0-3.5.2-5.6.3.1-4.4.1-8.4.1-12.6zM270.2 377.4c1.1-.1 1.6-.2 2.1-.2 10.8-.2 11.6.7 9.1 12.1-3.2 0-6.5.1-9.7-.1-.6 0-1.5-1.5-1.5-2.3-.1-3.1 0-6.1 0-9.5zM217.6 151.7H229c.3 3.9.5 7.5.8 11.4h-12.2v-11.4zM55.8 111.6v12.1H44.3c0-3.4-.1-6.7.1-10 .1-.8 1.4-1.9 2.2-2 2.9-.3 5.8-.1 9.2-.1zM297.2 350.8h11.5c0 3.5.1 6.8-.1 10.1 0 .7-1.3 1.8-2.1 1.8-3 .2-6 .1-9.3.1v-12zM297.1 468.8v-11.5h11.3v11.5h-11.3zM231 18.6c3.4 0 6.4-.2 9.5.1.7.1 1.9 1.5 1.9 2.4.2 3 .1 6.1.1 9.3H231V18.6zM215.6 83.4h-11.3V72.1h11.3v11.3zM188.9 72.2v11.1h-11.3V72.2h11.3zM162.1 189.5H151v-11.2h11.1v11.2zM414.6 404.1c.2.4.3.5.3.6.2 12.8 3.5 10.9-11.8 10.6v-5.6-5.6h11.5zM31.2 71V32h38.7c.1.9.4 1.8.4 2.7v32.5c0 2.1.1 3.9-2.9 3.8-12-.1-23.9 0-36.2 0zM31.3 430.7h38.9v15.5c0 6.4-.1 12.8 0 19.2 0 2.3-.5 3.7-3.2 3.6-11.8-.1-23.6 0-35.8 0 .1-12.8.1-25.3.1-38.3zM430.2 31.8h37.7c.2 1 .5 1.9.5 2.8v33c0 2-.2 3.4-2.8 3.4-11.7-.1-23.3 0-35.3 0-.1-13.1-.1-25.9-.1-39.2z"/></g><path fill="teal" d="M324.5 269.8c-.4 2-.7 4-1.2 6-2.3 8.2-7.2 14.6-14.1 19.5-1 .7-1.1 1.3-.8 2.3 1 3.5 1.9 6.9 2.9 10.7-.6-.2-1-.3-1.4-.5-4.1-1.9-8.1-3.7-12.2-5.7-.9-.5-1.8-.4-2.7-.1-15 3.8-29 2-41.7-7.2-7.7-5.6-12.8-13.1-14.2-22.7-1.5-10 1.5-18.8 8.1-26.3 6.9-7.8 15.7-12.3 25.9-13.9 12.1-2 23.7-.1 34.1 6.6 9 5.7 14.9 13.7 16.7 24.4.1.8.3 1.5.4 2.3.2 1.5.2 3 .2 4.6zm-28.5-8.7c3.3 0 6-2.7 6-6s-2.9-6.1-6.1-6.1c-3.3.1-6 2.8-6 6.1s2.7 6 6.1 6zm-34.6-6.2c0 3.3 2.7 5.9 5.9 5.9s5.8-2.7 5.8-5.9-2.7-6-5.9-6c-3.1.1-5.8 2.8-5.8 6z"/><path fill="teal" d="M284 227.4c-2.8.2-5.5.1-8.2.5-14.7 1.8-26.8 8.1-35 20.9-5.6 8.8-6.9 18.4-4 28.5.1.3.2.6.2.9-2.7 0-5.4.3-8.1-.1-3.7-.5-7.4-1.4-11.1-2.1-.6-.1-1.3 0-1.8.3-5 2.3-9.9 4.6-14.9 6.9-.4.2-.7.3-1.4.6.3-1.2.6-2.2.8-3.2.9-3.3 1.8-6.7 2.7-10 .3-.9 0-1.4-.7-1.9-8-5.7-14-12.9-16.6-22.4-4.3-15.5.2-28.6 11.7-39.4 9.2-8.6 20.3-12.8 32.8-13.7 12.7-.9 24.5 1.9 35.2 8.9 8.7 5.8 15 13.5 17.9 23.7.2.5.3 1.1.5 1.6zm-73.2-6.4c0 4 3.1 7.1 7.1 7.1 3.9 0 7.1-3.3 7.1-7.2s-3.2-7-7.1-7.1c-3.8.1-7.1 3.3-7.1 7.2zm47.7-.1c0-3.8-3.1-6.9-6.8-7-3.8-.1-7 3.1-7 7s3.2 7 7 7c3.7-.1 6.8-3.2 6.8-7z"/><path fill="none" d="M1.7 1.7h496.7v496.7H1.7z"/></svg>